<svg width="118" height="54" viewBox="0 0 118 54" fill="none" xmlns="http://www.w3.org/2000/svg">
<path d="M52.3662 23.6404H51.6986V16.4588H52.3662V23.6404ZM55.7782 17.0725H54.7015V23.6404H54.034V17.0725H52.9573V16.4588H55.7782V17.0725ZM62.4651 21.5731L62.9065 22.0253C62.727 22.2694 62.5153 22.517 62.2712 22.7683L62.7127 23.6404H62.0128L61.7975 23.242C61.4314 23.5722 61.0366 23.7373 60.6131 23.7373C60.1035 23.7373 59.6872 23.5435 59.3642 23.1559C59.0411 22.7611 58.8796 22.3053 58.8796 21.7885C58.8796 21.3721 58.9694 21.0061 59.1488 20.6902C59.3283 20.3672 59.5938 20.0442 59.9456 19.7212C59.5077 18.946 59.2888 18.2999 59.2888 17.7831C59.2888 17.3812 59.4252 17.0438 59.6979 16.771C59.9779 16.4983 60.3152 16.3619 60.71 16.3619C61.0833 16.3619 61.3919 16.4911 61.636 16.7495C61.88 17.0079 62.0021 17.3237 62.0021 17.697C62.0021 18.0056 61.9303 18.3035 61.7867 18.5907C61.6432 18.8778 61.496 19.1003 61.3453 19.2582C61.1945 19.4161 60.99 19.6063 60.7316 19.8289L61.9698 22.1761C62.1564 21.9751 62.3215 21.7741 62.4651 21.5731ZM61.356 17.6755C61.356 17.4745 61.2914 17.3022 61.1622 17.1586C61.033 17.0151 60.8715 16.9433 60.6777 16.9433C60.4552 16.9433 60.2686 17.0258 60.1178 17.1909C59.9743 17.3489 59.9025 17.5391 59.9025 17.7616C59.9025 17.9626 59.9312 18.1672 59.9886 18.3753C60.0532 18.5835 60.1143 18.745 60.1717 18.8598C60.2291 18.9675 60.3152 19.1218 60.4301 19.3228C61.0474 18.8203 61.356 18.2712 61.356 17.6755ZM61.496 22.6714L60.2363 20.3026C59.7482 20.8194 59.5041 21.3183 59.5041 21.7992C59.5041 22.1222 59.6046 22.4201 59.8056 22.6929C60.0066 22.9585 60.265 23.0913 60.5808 23.0913C60.8679 23.0913 61.173 22.9513 61.496 22.6714ZM70.5374 19.9473V23.6404H69.9345V20.0765C69.9345 19.5238 69.7479 19.2474 69.3746 19.2474C69.2382 19.2474 69.1234 19.2797 69.0301 19.3443C68.9368 19.4018 68.865 19.4735 68.8147 19.5597C68.7645 19.6386 68.725 19.7463 68.6963 19.8827C68.6748 20.0119 68.6604 20.1232 68.6532 20.2165C68.646 20.3098 68.6425 20.4246 68.6425 20.561V23.6404H68.0287V20.0873C68.0287 19.5274 67.8601 19.2474 67.5227 19.2474C67.3432 19.2474 67.1961 19.2905 67.0812 19.3766C66.9736 19.4628 66.8946 19.5884 66.8444 19.7535C66.8013 19.9186 66.7726 20.0657 66.7582 20.1949C66.751 20.317 66.7475 20.4713 66.7475 20.6579V23.6404H66.1445V18.8275H66.7475V19.2259C67.0489 18.9101 67.3612 18.7522 67.6842 18.7522C68.079 18.7522 68.3733 18.9388 68.5671 19.312C68.847 18.9388 69.1772 18.7522 69.5576 18.7522C69.9237 18.7522 70.1785 18.8562 70.3221 19.0644C70.4657 19.2726 70.5374 19.5669 70.5374 19.9473ZM74.0562 23.6404H73.4425V23.2528C73.2128 23.5614 72.9401 23.7157 72.6242 23.7157C72.4161 23.7157 72.2366 23.6583 72.0859 23.5435C71.9351 23.4215 71.8203 23.2851 71.7413 23.1343C71.6696 22.9764 71.6121 22.7754 71.5691 22.5314C71.5332 22.2801 71.5116 22.0756 71.5045 21.9177C71.4973 21.7526 71.4937 21.5552 71.4937 21.3255C71.4937 21.0671 71.4973 20.8517 71.5045 20.6795C71.5116 20.5 71.5368 20.2775 71.5798 20.0119C71.6229 19.7463 71.6839 19.531 71.7629 19.3659C71.8418 19.2008 71.9567 19.0572 72.1074 18.9352C72.2653 18.8132 72.4555 18.7522 72.6781 18.7522C72.9724 18.7522 73.2272 18.885 73.4425 19.1505V18.8275H74.0562V23.6404ZM73.5071 21.207C73.5071 20.9199 73.4999 20.6795 73.4856 20.4856C73.4712 20.2847 73.4425 20.0801 73.3995 19.8719C73.3636 19.6638 73.2954 19.5058 73.1949 19.3982C73.1016 19.2905 72.9795 19.2367 72.8288 19.2367C72.3551 19.2367 72.1182 19.8073 72.1182 20.9486C72.1182 21.4654 72.1289 21.8531 72.1505 22.1115C72.1648 22.2694 72.1792 22.3914 72.1935 22.4775C72.2151 22.5637 72.2474 22.6749 72.2905 22.8113C72.3335 22.9477 72.3981 23.0518 72.4843 23.1236C72.5776 23.1882 72.6888 23.2205 72.818 23.2205C72.976 23.2205 73.1052 23.1666 73.2056 23.059C73.4066 22.858 73.5071 22.2407 73.5071 21.207ZM76.5558 18.7522V19.452C76.3979 19.452 76.2651 19.4807 76.1574 19.5382C76.0497 19.5884 75.9672 19.6494 75.9098 19.7212C75.8595 19.7858 75.82 19.8827 75.7913 20.0119C75.7626 20.1411 75.7447 20.2524 75.7375 20.3457C75.7375 20.4318 75.7375 20.5574 75.7375 20.7225V23.6404H75.1345V18.8275H75.7375V19.452C75.9385 18.9998 76.2112 18.7665 76.5558 18.7522ZM80.1015 23.6404H79.337L77.8404 21.3362V23.6404H77.2375V15.7912H77.8404V20.7871L79.0463 18.8275H79.7247L78.3465 20.9809L80.1015 23.6404ZM82.1694 22.0038H82.7832C82.7329 23.1451 82.3273 23.7157 81.5665 23.7157C80.6333 23.7157 80.1668 22.8939 80.1668 21.2501C80.1668 20.9845 80.1847 20.7297 80.2206 20.4856C80.2565 20.2344 80.3175 19.9688 80.4036 19.6889C80.4898 19.4089 80.6298 19.1828 80.8236 19.0106C81.0174 18.8383 81.2506 18.7522 81.5234 18.7522C81.789 18.7522 82.0151 18.8311 82.2017 18.989C82.3884 19.1398 82.5212 19.3443 82.6001 19.6028C82.6863 19.854 82.7437 20.098 82.7724 20.3349C82.8083 20.5646 82.8262 20.8051 82.8262 21.0563C82.8262 21.085 82.8226 21.1353 82.8155 21.207C82.8155 21.2788 82.8155 21.3291 82.8155 21.3578H80.7805V21.4654C80.7805 21.6234 80.7877 21.7813 80.802 21.9392C80.8236 22.0971 80.8559 22.2766 80.8989 22.4775C80.9492 22.6785 81.0281 22.84 81.1358 22.9621C81.2506 23.0841 81.387 23.1451 81.5449 23.1451C81.9397 23.1451 82.1479 22.7647 82.1694 22.0038ZM80.7913 20.841H82.2233C82.173 19.8217 81.9433 19.312 81.5342 19.312C81.0891 19.312 80.8415 19.8217 80.7913 20.841ZM85.3185 19.3874H84.511V23.6404H83.9081V19.3874H83.3912V18.8275H83.9081V17.4601H84.511V18.8275H85.3185V19.3874ZM86.473 23.6404H85.8592V18.8275H86.473V23.6404ZM86.4837 16.9971C86.5699 17.0905 86.6129 17.1981 86.6129 17.3201C86.6129 17.4422 86.5699 17.5463 86.4837 17.6324C86.3976 17.7185 86.2935 17.7616 86.1715 17.7616C86.0495 17.7616 85.9418 17.7185 85.8485 17.6324C85.7623 17.5463 85.7193 17.4422 85.7193 17.3201C85.7193 17.1909 85.7623 17.0833 85.8485 16.9971C85.9346 16.9038 86.0423 16.8572 86.1715 16.8572C86.2935 16.8572 86.3976 16.9038 86.4837 16.9971ZM90.0182 23.6404H89.4153V20.1411C89.4153 20.0119 89.4117 19.9078 89.4045 19.8289C89.3973 19.7499 89.3758 19.6602 89.3399 19.5597C89.3112 19.452 89.2574 19.3731 89.1784 19.3228C89.0995 19.2726 88.999 19.2474 88.8769 19.2474C88.6257 19.2474 88.4355 19.3515 88.3063 19.5597C88.1986 19.7176 88.1448 19.9975 88.1448 20.3995V23.6404H87.5418V18.8275H88.1448V19.2151C88.4176 18.9065 88.7298 18.7522 89.0815 18.7522C89.4476 18.7522 89.6952 18.8742 89.8244 19.1182C89.9536 19.3551 90.0182 19.6745 90.0182 20.0765V23.6404ZM93.583 18.8275V24.168C93.583 25.1083 93.1631 25.5784 92.3232 25.5784C91.9141 25.5784 91.6018 25.46 91.3865 25.2231C91.1783 24.9863 91.0743 24.6597 91.0743 24.2433C91.0743 24.1572 91.0778 24.0962 91.085 24.0603H91.6987C91.6987 24.3618 91.7382 24.5951 91.8172 24.7601C91.9033 24.9252 92.0828 25.0078 92.3555 25.0078C92.4991 25.0078 92.6139 24.9827 92.7001 24.9324C92.7862 24.8822 92.8472 24.8068 92.8831 24.7063C92.919 24.6058 92.9405 24.5089 92.9477 24.4156C92.9621 24.3295 92.9692 24.2146 92.9692 24.0711V23.2958C92.7611 23.5255 92.5063 23.6404 92.2048 23.6404C92.011 23.6404 91.8387 23.6009 91.688 23.5219C91.5444 23.443 91.4296 23.3281 91.3434 23.1774C91.2573 23.0195 91.1855 22.8687 91.1281 22.7252C91.0778 22.5744 91.042 22.3878 91.0204 22.1653C90.9989 21.9356 90.9845 21.7562 90.9774 21.627C90.9774 21.4977 90.9774 21.3327 90.9774 21.1317C90.9774 19.5453 91.3757 18.7522 92.1725 18.7522C92.4883 18.7522 92.7539 18.8885 92.9692 19.1613V18.8275H93.583ZM93.0338 20.9486C93.0338 19.8145 92.7898 19.2474 92.3017 19.2474C92.0146 19.2474 91.8244 19.4377 91.731 19.8181C91.6449 20.1985 91.6018 20.7118 91.6018 21.3578C91.6018 22.5493 91.8531 23.1451 92.3555 23.1451C92.7288 23.1451 92.9441 22.8006 93.0015 22.1115C93.0231 21.8459 93.0338 21.4583 93.0338 20.9486ZM98.9929 19.0644V19.8073C98.7201 19.4771 98.4438 19.312 98.1638 19.312C97.9916 19.312 97.848 19.3731 97.7331 19.4951C97.6255 19.6171 97.5716 19.7678 97.5716 19.9473C97.5716 20.1196 97.6255 20.2811 97.7331 20.4318C97.8408 20.5754 97.97 20.7082 98.1208 20.8302C98.2715 20.9522 98.4222 21.0814 98.573 21.2178C98.7237 21.347 98.8529 21.5121 98.9606 21.7131C99.0683 21.9069 99.1221 22.1222 99.1221 22.3591C99.1221 22.7395 99.0001 23.0626 98.756 23.3281C98.512 23.5865 98.2033 23.7157 97.83 23.7157C97.5142 23.7157 97.2163 23.6045 96.9364 23.382V22.6714C97.2379 22.9872 97.5214 23.1451 97.787 23.1451C97.9951 23.1451 98.1638 23.0733 98.293 22.9298C98.4222 22.7862 98.4868 22.6103 98.4868 22.4022C98.4868 22.2299 98.433 22.0648 98.3253 21.9069C98.2177 21.7418 98.0885 21.5946 97.9377 21.4654C97.787 21.3362 97.6362 21.2034 97.4855 21.0671C97.3348 20.9235 97.2056 20.7584 97.0979 20.5718C96.9902 20.3852 96.9364 20.1842 96.9364 19.9688C96.9364 19.6171 97.0476 19.3264 97.2702 19.0967C97.4927 18.867 97.7798 18.7522 98.1315 18.7522C98.4186 18.7522 98.7058 18.8562 98.9929 19.0644ZM101.448 19.3874H100.64V23.6404H100.038V19.3874H99.5207V18.8275H100.038V17.4601H100.64V18.8275H101.448V19.3874ZM104.497 18.8275V22.4668C104.497 22.8544 104.383 23.1595 104.153 23.382C103.93 23.6045 103.629 23.7157 103.248 23.7157C102.868 23.7157 102.563 23.6045 102.333 23.382C102.111 23.1595 101.999 22.8544 101.999 22.4668V18.8275H102.602V22.0899C102.602 22.2478 102.606 22.3771 102.613 22.4775C102.628 22.5709 102.653 22.6785 102.689 22.8006C102.732 22.9154 102.8 23.0015 102.893 23.059C102.994 23.1164 103.119 23.1451 103.27 23.1451C103.421 23.1451 103.539 23.1128 103.625 23.0482C103.719 22.9836 103.783 22.8867 103.819 22.7575C103.855 22.6211 103.877 22.5063 103.884 22.4129C103.891 22.3196 103.894 22.1904 103.894 22.0253V18.8275H104.497ZM107.954 23.6404H107.351V23.2528C107.121 23.5614 106.845 23.7157 106.522 23.7157C106.343 23.7157 106.185 23.6799 106.048 23.6081C105.919 23.5291 105.815 23.4143 105.736 23.2635C105.657 23.1128 105.592 22.9656 105.542 22.8221C105.492 22.6714 105.456 22.4883 105.435 22.273C105.413 22.0576 105.399 21.8854 105.391 21.7562C105.391 21.6198 105.391 21.4583 105.391 21.2716C105.391 21.0491 105.391 20.8768 105.391 20.7548C105.399 20.6256 105.413 20.4462 105.435 20.2165C105.456 19.9796 105.492 19.793 105.542 19.6566C105.592 19.513 105.657 19.3659 105.736 19.2151C105.822 19.0572 105.937 18.9424 106.081 18.8706C106.224 18.7916 106.393 18.7522 106.587 18.7522C106.881 18.7522 107.136 18.885 107.351 19.1505V15.7912H107.954V23.6404ZM107.405 21.2393C107.405 20.6077 107.362 20.116 107.276 19.7643C107.19 19.4125 107.006 19.2367 106.727 19.2367C106.26 19.2367 106.027 19.8073 106.027 20.9486C106.027 21.4654 106.037 21.8531 106.059 22.1115C106.073 22.255 106.088 22.3771 106.102 22.4775C106.116 22.5709 106.145 22.6857 106.188 22.8221C106.231 22.9513 106.296 23.0518 106.382 23.1236C106.475 23.1882 106.587 23.2205 106.716 23.2205C106.881 23.2205 107.014 23.1666 107.114 23.059C107.308 22.8652 107.405 22.2586 107.405 21.2393ZM109.637 23.6404H109.023V18.8275H109.637V23.6404ZM109.648 16.9971C109.734 17.0905 109.777 17.1981 109.777 17.3201C109.777 17.4422 109.734 17.5463 109.648 17.6324C109.561 17.7185 109.457 17.7616 109.335 17.7616C109.213 17.7616 109.106 17.7185 109.012 17.6324C108.926 17.5463 108.883 17.4422 108.883 17.3201C108.883 17.1909 108.926 17.0833 109.012 16.9971C109.098 16.9038 109.206 16.8572 109.335 16.8572C109.457 16.8572 109.561 16.9038 109.648 16.9971ZM113.279 21.2609C113.279 22.8975 112.83 23.7157 111.933 23.7157C111.639 23.7157 111.391 23.6332 111.19 23.4681C110.989 23.303 110.842 23.0841 110.749 22.8113C110.663 22.5386 110.602 22.2766 110.566 22.0253C110.537 21.7741 110.523 21.5085 110.523 21.2286C110.523 21.0132 110.53 20.8087 110.544 20.6149C110.566 20.4139 110.605 20.1949 110.663 19.9581C110.72 19.7212 110.799 19.5202 110.899 19.3551C111 19.1828 111.136 19.0393 111.309 18.9244C111.488 18.8096 111.696 18.7522 111.933 18.7522C112.83 18.7522 113.279 19.5884 113.279 21.2609ZM111.922 23.1451C112.41 23.1451 112.654 22.5063 112.654 21.2286C112.654 19.9509 112.41 19.312 111.922 19.312C111.413 19.312 111.158 19.9688 111.158 21.2824C111.158 22.5242 111.413 23.1451 111.922 23.1451Z" fill="white"/>
<path d="M47.2808 23.6404C47.2808 18.9648 45.8944 14.3942 43.2967 10.5065C40.6991 6.61886 37.0069 3.58881 32.6872 1.79952C28.3675 0.0102324 23.6142 -0.457927 19.0284 0.454244C14.4426 1.36641 10.2303 3.61795 6.92412 6.92412C3.61795 10.2303 1.36641 14.4426 0.454244 19.0284C-0.457927 23.6142 0.0102324 28.3675 1.79952 32.6872C3.58881 37.0069 6.61886 40.6991 10.5065 43.2967C14.3942 45.8944 18.9648 47.2808 23.6404 47.2808V33.5454C21.6814 33.5454 19.7664 32.9645 18.1375 31.8761C16.5086 30.7877 15.2391 29.2408 14.4894 27.4309C13.7397 25.621 13.5436 23.6294 13.9258 21.7081C14.308 19.7867 15.2513 18.0218 16.6365 16.6365C18.0218 15.2513 19.7867 14.308 21.7081 13.9258C23.6294 13.5436 25.621 13.7397 27.4309 14.4894C29.2408 15.2391 30.7877 16.5086 31.8761 18.1375C32.9645 19.7664 33.5454 21.6814 33.5454 23.6404H47.2808Z" fill="url(#paint0_linear)"/>
<path d="M26.8815 28.5816H29.3158L30.5875 37.2651L30.7934 38.5488C30.8902 39.2432 30.9629 39.877 31.0114 40.4502L31.1446 42.0368C31.1526 42.0771 31.1607 42.1498 31.1688 42.2548C31.1769 42.3597 31.189 42.4929 31.2051 42.6544L31.2657 42.0489C31.3626 40.9912 31.4635 40.0183 31.5685 39.1301C31.6815 38.242 31.8026 37.4225 31.9318 36.6716L33.2761 28.5816H35.2138L36.4734 36.4415C36.6591 37.6042 36.8125 38.682 36.9336 39.6751C37.0628 40.6682 37.1677 41.6169 37.2485 42.5212C37.3292 41.5685 37.418 40.648 37.5149 39.7599C37.6199 38.8718 37.7289 37.9998 37.8419 37.144L38.0235 35.8965L39.1014 28.5816H41.5115L38.2052 47.2808H36.2433L34.9232 39.2028C34.9151 39.1705 34.8949 39.0373 34.8626 38.8032C34.8303 38.569 34.7819 38.2339 34.7173 37.798L34.463 35.9329C34.4468 35.7875 34.4185 35.5696 34.3782 35.2789C34.3459 34.9882 34.3095 34.6209 34.2692 34.1768L34.2086 33.4017C34.1925 33.5874 34.1763 33.7489 34.1602 33.8861C34.144 34.0234 34.1319 34.1364 34.1238 34.2252C34.0835 34.7581 34.0471 35.1739 34.0149 35.4727C33.9906 35.7633 33.9745 35.941 33.9664 36.0055L33.7121 37.798C33.6556 38.2097 33.6112 38.5327 33.5789 38.7668C33.5466 39.001 33.5223 39.1463 33.5062 39.2028L32.1377 47.2808H30.1151L26.8815 28.5816ZM42.989 28.5816H49.6863V30.7131H45.5081V36.6353H49.214V38.7668H45.5081V45.1492H49.6863V47.2808H42.989V28.5816ZM51.9995 28.5816H55.4148C58.0872 28.5816 59.4235 30.2408 59.4235 33.5591C59.4235 34.8268 59.2499 35.7674 58.9027 36.381C58.5555 36.9946 57.9419 37.4588 57.0618 37.7737C58.0711 38.1774 58.7614 38.6942 59.1328 39.3239C59.5123 39.9456 59.702 40.8822 59.702 42.1336C59.702 45.5651 58.2326 47.2808 55.2937 47.2808H51.9995V28.5816ZM54.3732 36.817C55.3502 36.817 56.0284 36.5909 56.4079 36.1388C56.7873 35.6624 56.9771 34.8268 56.9771 33.6318C56.9771 31.6133 56.2504 30.6041 54.7971 30.6041H54.6033H54.4943C54.4297 30.6041 54.3894 30.6081 54.3732 30.6162V36.817ZM54.3732 45.125C55.4067 45.125 56.1212 44.903 56.5168 44.4589C56.9125 44.0149 57.1103 43.2115 57.1103 42.0489C57.1103 40.8539 56.9044 40.0183 56.4926 39.5419C56.0889 39.0575 55.3825 38.8153 54.3732 38.8153V45.125ZM68.4582 28.9691V31.4276C67.6911 30.8786 67.0008 30.6041 66.3872 30.6041C65.7251 30.6041 65.1842 30.8382 64.7643 31.3065C64.3445 31.7506 64.1346 32.344 64.1346 33.0868C64.1346 33.7408 64.284 34.3019 64.5827 34.7702C64.7361 35.0205 64.9864 35.3435 65.3336 35.7391C65.6888 36.1347 66.145 36.6111 66.7021 37.1682C67.7275 38.2097 68.4259 39.11 68.7973 39.8689C69.1687 40.6036 69.3544 41.5039 69.3544 42.5696C69.3544 44.0149 68.9466 45.2058 68.1312 46.1423C67.3157 47.0547 66.2701 47.5109 64.9945 47.5109C63.9206 47.5109 63.0042 47.2162 62.2453 46.6268V44.1319C63.1415 44.7859 63.957 45.1129 64.6917 45.1129C65.378 45.1129 65.9149 44.8868 66.3024 44.4347C66.69 43.9745 66.8838 43.3528 66.8838 42.5696C66.8838 41.8914 66.7344 41.2818 66.4356 40.7409C66.2822 40.4825 66.0683 40.1878 65.7938 39.8568C65.5193 39.5177 65.1761 39.1423 64.7643 38.7305C64.1265 38.1007 63.5977 37.5436 63.1778 37.0592C62.758 36.5748 62.4471 36.1509 62.2453 35.7875C61.8577 35.077 61.664 34.1808 61.664 33.0989C61.664 31.6376 62.0434 30.4789 62.8024 29.6231C63.5694 28.7592 64.5988 28.3272 65.8907 28.3272C66.7869 28.3272 67.6427 28.5412 68.4582 28.9691ZM78.813 28.8843V31.1491C78.167 30.8342 77.6261 30.6768 77.1901 30.6768C76.5926 30.6768 76.0799 30.8261 75.652 31.1249C75.2241 31.4155 74.8689 31.8677 74.5863 32.4813C74.3118 33.0949 74.1059 33.874 73.9686 34.8187C73.8394 35.7553 73.7748 36.8654 73.7748 38.1492C73.7748 42.7674 74.9577 45.0766 77.3233 45.0766C77.7351 45.0766 78.2316 44.9474 78.813 44.689V47.0022C78.2074 47.3413 77.5292 47.5109 76.7783 47.5109C72.9917 47.5109 71.0983 44.4186 71.0983 38.2339C71.0983 34.8913 71.5585 32.4046 72.479 30.7736C73.4075 29.1427 74.8244 28.3272 76.7299 28.3272C77.4323 28.3272 78.1267 28.5129 78.813 28.8843ZM80.9445 28.5816H84.2629C85.6354 28.5816 86.6568 28.9086 87.3269 29.5626C88.1747 30.4103 88.5985 31.7062 88.5985 33.4501C88.5985 34.7904 88.3725 35.8683 87.9203 36.6838C87.4763 37.4911 86.8384 37.9917 86.0068 38.1855L89.4463 47.2808H86.8909L83.4635 38.1249V47.2808H80.9445V28.5816ZM83.4635 36.8654C84.4405 36.8654 85.1308 36.6393 85.5345 36.1872C85.9382 35.7351 86.14 34.9721 86.14 33.8983C86.14 33.3169 86.0956 32.8204 86.0068 32.4086C85.9261 31.9968 85.7929 31.6618 85.6072 31.4034C85.4295 31.145 85.1954 30.9553 84.9047 30.8342C84.6221 30.7131 84.283 30.6525 83.8874 30.6525H83.4635V36.8654ZM91.4083 28.5816H93.9273V47.2808H91.4083V28.5816ZM96.8097 28.5816H100.128C101.727 28.5816 102.889 28.9853 103.616 29.7927C104.343 30.6081 104.706 31.9 104.706 33.6681C104.706 36.1549 103.975 37.7616 102.514 38.4883C101.779 38.8193 100.717 38.9848 99.3288 38.9848V47.2808H96.8097V28.5816ZM99.3288 36.8291C100.37 36.8291 101.089 36.6192 101.485 36.1993C101.888 35.7714 102.09 35.0125 102.09 33.9225C102.09 32.8083 101.896 31.9928 101.509 31.4761C101.121 30.9593 100.512 30.701 99.68 30.701H99.3288V36.8291ZM105.154 28.5816H113.353V30.7858H110.531V47.2808H108.061V30.7858H105.154V28.5816ZM115.242 44.471C115.638 44.471 115.981 44.6204 116.272 44.9191C116.563 45.2098 116.708 45.561 116.708 45.9728C116.708 46.3846 116.563 46.7358 116.272 47.0264C115.965 47.309 115.614 47.4503 115.218 47.4503C115.008 47.4503 114.811 47.4099 114.625 47.3292C114.447 47.2565 114.29 47.1556 114.152 47.0264C114.015 46.8892 113.906 46.7317 113.825 46.5541C113.753 46.3684 113.716 46.1706 113.716 45.9607C113.716 45.5489 113.862 45.1977 114.152 44.907C114.451 44.6164 114.815 44.471 115.242 44.471Z" fill="white"/>
<defs>
<linearGradient id="paint0_linear" x1="78.7609" y1="-33.9865" x2="-15.1978" y2="157.943" gradientUnits="userSpaceOnUse">
<stop stop-color="#FAD949"/>
<stop offset="1" stop-color="#F7C644"/>
</linearGradient>
</defs>
</svg>
